:SAMPLES-PER-SECOND 30
:FULLY-SPECIFIED
:DEGREES
444
root  13.3456 31.8239 -32.3264 27.6564 -83.5732 -13.7496
RightUpLeg  -51.201 -20.6404 30.3457
RightLeg  84.2023 0.665281 6.46543
RightFoot  -2.87774 -2.07056 28.053
RightToes  1.16414e-010 0 -3.6325e-017
Spine  49.3765 -3.09146 -13.7241
Spine1  8.92065 -1.90342 -23.4027
HEad  -32.4701 22.5383 -25.3431
LeftShoulder1  0.878769 16.0524 17.567
LeftArm  -133.658 -52.9502 26.2145
LeftForeArm  -64.1992 -22.8357 -4.94515
LeftHand  -0.00106432 5.73063 7.52019
RightShoulder  3.2041 8.1295 21.238
RightArm  60.3268 -48.6993 60.3619
RightForeArm  49.8863 43.0386 7.18777
RightHand  0.2089 -10.6167 -5.67841
LeftUpLeg  -66.8196 19.4734 -38.1538
LeftLeg  40.192 15.2719 13.7932
LeftFoot  -7.91209 -0.455587 16.6947
LeftToes  7.09373e-011 9.9627e-011 8.96859e-012
445
root  13.6969 31.6077 -30.7246 19.9492 -85.1848 -6.40724
RightUpLeg  -47.7888 -25.143 36.8681
RightLeg  75.614 1.04251 3.60945
RightFoot  3.45331 -2.92448 22.3223
RightToes  1.16414e-010 0 -3.6325e-017
Spine  48.2031 -2.92623 -14.5006
Spine1  7.6958 -2.313 -23.9802
HEad  -33.6844 24.2083 -26.0999
LeftShoulder1  0.8808 15.7881 17.7682
LeftArm  -122.914 -51.5978 23.6129
LeftForeArm  -73.684 -19.9022 0.848729
LeftHand  -0.00274743 5.71314 7.18279
RightShoulder  3.17442 8.01231 21.2633
RightArm  58.0523 -45.7648 62.3538
RightForeArm  49.6171 42.1595 6.94287
RightHand  0.141614 -10.4673 -4.37158
LeftUpLeg  -66.0801 18.1875 -40.7716
LeftLeg  39.8084 16.4598 14.5918
LeftFoot  -5.67905 -0.905356 18.6229
LeftToes  7.09373e-011 9.9627e-011 8.96859e-012
446
root  14.044 31.5038 -29.1499 5.36426 -86.2459 7.64828
RightUpLeg  -41.6788 -24.7775 37.5272
RightLeg  66.7927 -0.0013509 -0.612278
RightFoot  -4.37638 -0.68985 6.41535
RightToes  1.16414e-010 0 -3.6325e-017
Spine  46.9082 -2.9288 -14.7766
Spine1  6.34627 -3.16066 -24.8582
HEad  -34.6546 25.7445 -26.7399
LeftShoulder1  0.83587 14.1532 18.5503
LeftArm  -112.415 -49.1888 19.9909
LeftForeArm  -82.7029 -16.3605 6.05582
LeftHand  -0.0261911 5.31834 6.55929
RightShoulder  3.13213 7.76059 21.5221
RightArm  56.317 -42.5534 63.5317
RightForeArm  49.5948 40.0975 6.34943
RightHand  0.0499019 -9.54925 -2.6175
LeftUpLeg  -65.9698 18.0858 -44.0861
LeftLeg  39.6284 15.1665 13.4511
LeftFoot  -0.683878 -1.9412 20.4368
LeftToes  7.09373e-011 9.9627e-011 8.96859e-012
447
root  14.4879 31.1385 -27.29 -16.3692 -87.1265 27.7952
RightUpLeg  -35.3674 -19.4017 34.8053
RightLeg  62.4901 -3.59146 -8.09417
RightFoot  -21.0702 -0.766796 -8.98989
RightToes  1.16414e-010 0 -3.6325e-017
Spine  46.337 -2.63298 -14.53
Spine1  4.82085 -3.49708 -24.7962
HEad  -36.0637 26.9675 -27.1713
LeftShoulder1  0.658805 11.7661 18.6834
LeftArm  -101.938 -46.2251 16.4518
LeftForeArm  -91.5483 -12.1634 9.89057
LeftHand  -0.0224603 5.39315 6.26164
RightShoulder  3.10523 7.53411 21.8719
RightArm  56.1514 -39.6616 63.1361
RightForeArm  49.6238 37.8392 5.73674
RightHand  -0.0105715 -7.03858 -2.22733
LeftUpLeg  -66.5672 18.2692 -46.0054
LeftLeg  42.3477 10.7741 10.6775
LeftFoot  6.47804 -2.86988 17.9906
LeftToes  7.09373e-011 9.9627e-011 8.96859e-012
448
root  15.0276 30.8049 -25.3759 -49.3414 -87.9859 57.9943
RightUpLeg  -31.581 -13.9505 32.0168
RightLeg  63.5925 -8.0336 -17.7599
RightFoot  -32.8101 -2.00973 -9.73228
RightToes  1.16414e-010 0 -3.6325e-017
Spine  46.0132 -1.62624 -13.9588
Spine1  4.05534 -2.95649 -22.8936
HEad  -38.388 27.4448 -27.6389
LeftShoulder1  0.502915 10.5855 17.7353
LeftArm  -93.5157 -44.2919 13.6956
LeftForeArm  -98.8219 -8.16485 12.0898
LeftHand  0.000875034 5.89142 6.06641
RightShoulder  3.03523 7.26518 21.9286
RightArm  57.5516 -36.4625 62.2141
RightForeArm  47.5933 35.2748 5.19331
RightHand  -0.0113196 -5.81856 -3.69425
LeftUpLeg  -67.169 19.0533 -44.9394
LeftLeg  46.4658 3.63791 4.47351
LeftFoot  17.6365 -1.42818 5.81025
LeftToes  7.09373e-011 9.9627e-011 8.96859e-012
449
root  15.4684 30.6222 -23.6156 -73.6419 -88.6243 78.9114
RightUpLeg  -30.3532 -12.752 30.2377
RightLeg  67.7585 -9.78828 -25.3152
RightFoot  -36.564 -1.01507 -3.33019
RightToes  1.16414e-010 0 -3.6325e-017
Spine  45.4245 -0.416571 -12.5233
Spine1  4.82386 -2.04022 -20.0748
HEad  -40.9742 26.9845 -27.7107
LeftShoulder1  0.372301 9.62629 16.5716
LeftArm  -87.0553 -42.0996 11.0122
LeftForeArm  -102.977 -5.58711 12.9219
LeftHand  0.00717788 6.08784 5.58279
RightShoulder  2.8753 6.79719 21.6403
RightArm  60.4134 -32.6817 62.3006
RightForeArm  42.4295 31.8054 4.62913
RightHand  0.0459624 -7.9593 -3.82204
LeftUpLeg  -67.3307 20.8276 -41.6173
LeftLeg  50.2808 -2.03352 -2.1265
LeftFoot  31.3491 4.93276 -13.0473
LeftToes  7.09373e-011 9.9627e-011 8.96859e-012
450
root  15.6356 30.5462 -22.0275 -43.0456 -88.9376 44.6763
RightUpLeg  -29.2119 -14.3967 28.2785
RightLeg  71.4873 -9.48954 -29.6458
RightFoot  -36.4378 0.347401 2.69837
RightToes  1.16414e-010 0 -3.6325e-017
Spine  44.7755 -0.0266953 -9.91376
Spine1  6.14181 -1.66809 -17.3011
HEad  -42.483 26.048 -26.5612
LeftShoulder1  0.211889 7.63937 15.4699
LeftArm  -80.9064 -38.5397 8.06841
LeftForeArm  -104.062 -4.74464 12.7633
LeftHand  -0.0225985 5.4161 5.06081
RightShoulder  2.69801 6.24904 21.3803
RightArm  64.3256 -29.4551 63.1508
RightForeArm  37.3714 28.2914 4.09443
RightHand  0.0735487 -8.50204 -4.28085
LeftUpLeg  -66.5918 22.6966 -37.357
LeftLeg  54.4528 -1.02527 -0.895572
LeftFoot  39.3076 11.5783 -25.0676
LeftToes  7.09373e-011 9.9627e-011 8.96859e-012
451
root  15.7151 30.7269 -20.4561 6.19606 -87.3126 -7.8203
RightUpLeg  -27.1873 -16.0671 25.069
RightLeg  73.2532 -8.39387 -29.7108
RightFoot  -36.225 1.0224 5.74179
RightToes  1.16414e-010 0 -3.6325e-017
Spine  44.6223 -0.745521 -7.49664
Spine1  6.77584 -1.99426 -14.557
HEad  -42.2993 25.2895 -24.0972
LeftShoulder1  0.0722489 5.45046 13.8658
LeftArm  -74.9563 -34.6004 5.2071
LeftForeArm  -103.329 -5.00354 11.8713
LeftHand  -0.0599381 4.37406 4.61968
RightShoulder  2.6197 5.93426 21.4804
RightArm  67.556 -28.1043 63.3303
RightForeArm  33.3151 26.073 3.82504
RightHand  0.0920776 -8.09675 -5.49999
LeftUpLeg  -65.3889 23.065 -32.5073
LeftLeg  60.9736 2.77886 6.02266
LeftFoot  34.2903 10.7335 -25.5265
LeftToes  7.09373e-011 9.9627e-011 8.96859e-012
452
root  15.7027 31.0786 -18.9147 7.63515 -85.4137 -11.6829
RightUpLeg  -24.655 -17.0486 21.4762
RightLeg  73.6884 -7.45434 -27.7492
RightFoot  -36.7349 1.45469 7.56704
RightToes  1.16414e-010 0 -3.6325e-017
Spine  44.2947 -1.63884 -6.01052
Spine1  6.19646 -2.6922 -11.7487
HEad  -41.173 24.8157 -20.8819
LeftShoulder1  0.0106085 4.19567 11.6088
LeftArm  -70.1595 -31.3884 3.06658
LeftForeArm  -102.688 -5.37075 10.8169
LeftHand  -0.0650425 3.98995 3.80267
RightShoulder  2.64209 5.89229 21.867
RightArm  69.0687 -28.2446 62.5764
RightForeArm  30.6738 24.9863 3.72819
RightHand  0.117569 -8.21736 -6.29414
LeftUpLeg  -64.4567 21.7159 -26.2332
LeftLeg  69.0581 3.17311 9.83314
LeftFoot  17.0413 5.00573 -19.7059
LeftToes  7.09373e-011 9.9627e-011 8.96859e-012
